<?xml version="1.0" standalone="no"?>
<!DOCTYPE svg PUBLIC "-//W3C//DTD SVG 20010904//EN"
 "http://www.w3.org/TR/2001/REC-SVG-20010904/DTD/svg10.dtd">
<svg version="1.0" xmlns="http://www.w3.org/2000/svg"
 width="176.000000pt" height="176.000000pt" viewBox="0 0 176.000000 176.000000"
 preserveAspectRatio="xMidYMid meet">

<g transform="translate(0.000000,176.000000) scale(0.100000,-0.100000)"
fill="#000000" stroke="none">
<path d="M755 1621 c-253 -69 -437 -239 -521 -486 -25 -71 -28 -95 -28 -210
-1 -152 13 -216 76 -345 34 -68 60 -102 128 -170 97 -97 163 -139 287 -183 81
-29 99 -31 218 -32 148 0 198 11 333 77 177 86 344 295 377 473 16 84 17 234
2 315 -46 244 -246 466 -494 547 -107 35 -277 42 -378 14z m362 -32 c120 -37
200 -86 293 -179 146 -146 200 -266 208 -465 7 -188 -32 -315 -142 -461 -311
-413 -960 -347 -1186 121 -96 200 -94 421 4 621 98 197 284 338 501 380 91 18
234 10 322 -17z"/>
<path d="M1227 982 c-38 -5 -67 -53 -67 -113 0 -29 -6 -51 -15 -59 -25 -21
-18 -40 15 -40 23 0 33 -6 42 -25 6 -13 19 -27 30 -30 28 -9 54 3 66 30 9 19
19 25 42 25 35 0 38 12 9 48 l-21 27 7 -32 7 -33 -92 0 c-91 0 -92 0 -86 23 3
12 6 44 6 70 0 57 32 97 78 97 42 0 63 -20 77 -76 10 -36 14 -42 14 -21 2 73
-44 117 -112 109z m51 -229 c-4 -20 -45 -30 -60 -15 -16 16 1 32 33 32 24 0
30 -4 27 -17z"/>
<path d="M495 925 c-39 -38 -32 -63 41 -139 l65 -69 65 64 c72 71 84 97 60
134 -22 34 -58 41 -94 20 -27 -17 -31 -17 -53 -1 -33 22 -56 20 -84 -9z"/>
<path d="M980 585 c-18 -19 -32 -36 -29 -38 2 -2 19 14 38 35 42 48 36 50 -9
3z"/>
<path d="M840 576 c0 -2 8 -10 18 -17 15 -13 16 -12 3 4 -13 16 -21 21 -21 13z"/>
<path d="M910 510 c-9 -6 -10 -10 -3 -10 6 0 15 5 18 10 8 12 4 12 -15 0z"/>
</g>
</svg>
